<svg xmlns="http://www.w3.org/2000/svg" width="900" height="360" viewBox="0 0 900 360">
  <rect width="900" height="360" fill="#ffffff" />
  <rect x="30" y="40" width="260" height="90" fill="#f3f4f6" stroke="#4b5563" />
  <text x="160" y="70" text-anchor="middle" font-family="Arial" font-size="12" fill="#111827">Data Quality</text>
  <text x="160" y="92" text-anchor="middle" font-family="Arial" font-size="11" fill="#374151">Completeness / Consistency / Coverage</text>

  <rect x="330" y="40" width="260" height="90" fill="#e0f2fe" stroke="#0284c7" />
  <text x="460" y="70" text-anchor="middle" font-family="Arial" font-size="12" fill="#111827">Thresholds</text>
  <text x="460" y="92" text-anchor="middle" font-family="Arial" font-size="11" fill="#374151">Energy, Waste, Transport, Materials</text>

  <rect x="630" y="40" width="240" height="90" fill="#ecfccb" stroke="#65a30d" />
  <text x="750" y="70" text-anchor="middle" font-family="Arial" font-size="12" fill="#111827">Coordination Mode</text>
  <text x="750" y="92" text-anchor="middle" font-family="Arial" font-size="11" fill="#374151">Parallel vs Sequential</text>

  <rect x="130" y="190" width="240" height="90" fill="#fde68a" stroke="#f59e0b" />
  <text x="250" y="220" text-anchor="middle" font-family="Arial" font-size="12" fill="#111827">Tuning</text>
  <text x="250" y="242" text-anchor="middle" font-family="Arial" font-size="11" fill="#374151">Sensitivity / Horizon / Strictness</text>

  <rect x="450" y="190" width="320" height="90" fill="#fee2e2" stroke="#ef4444" />
  <text x="610" y="220" text-anchor="middle" font-family="Arial" font-size="12" fill="#111827">Outputs</text>
  <text x="610" y="242" text-anchor="middle" font-family="Arial" font-size="11" fill="#374151">Recommendations + Reports toggles</text>

  <line x1="290" y1="85" x2="330" y2="85" stroke="#6b7280" stroke-width="2" />
  <line x1="590" y1="85" x2="630" y2="85" stroke="#6b7280" stroke-width="2" />
  <line x1="460" y1="130" x2="250" y2="190" stroke="#6b7280" stroke-width="2" />
  <line x1="460" y1="130" x2="610" y2="190" stroke="#6b7280" stroke-width="2" />

  <text x="30" y="320" font-family="Arial" font-size="12" fill="#6b7280">
    Orchestration parameters drive agent selection and output depth.
  </text>
</svg>
