<svg xmlns="http://www.w3.org/2000/svg" width="900" height="420" viewBox="0 0 900 420">
  <rect width="900" height="420" fill="#ffffff" />
  <rect x="20" y="40" width="180" height="70" fill="#f2f4f8" stroke="#4b5563" />
  <text x="110" y="70" text-anchor="middle" font-family="Arial" font-size="14" fill="#111827">MSME Profile</text>
  <text x="110" y="90" text-anchor="middle" font-family="Arial" font-size="12" fill="#374151">Transactions + Products</text>

  <rect x="240" y="20" width="200" height="70" fill="#e0f2fe" stroke="#0284c7" />
  <text x="340" y="50" text-anchor="middle" font-family="Arial" font-size="12" fill="#0f172a">Sector Profiler</text>
  <text x="340" y="68" text-anchor="middle" font-family="Arial" font-size="11" fill="#334155">Behavior Weights</text>

  <rect x="240" y="110" width="200" height="70" fill="#ede9fe" stroke="#7c3aed" />
  <text x="340" y="140" text-anchor="middle" font-family="Arial" font-size="12" fill="#0f172a">Process/Machinery</text>
  <text x="340" y="158" text-anchor="middle" font-family="Arial" font-size="11" fill="#334155">Emission Factors</text>

  <rect x="480" y="60" width="180" height="90" fill="#ecfccb" stroke="#65a30d" />
  <text x="570" y="92" text-anchor="middle" font-family="Arial" font-size="12" fill="#1f2937">Orchestration</text>
  <text x="570" y="110" text-anchor="middle" font-family="Arial" font-size="11" fill="#374151">Plan + Thresholds</text>
  <text x="570" y="128" text-anchor="middle" font-family="Arial" font-size="11" fill="#374151">Data Quality</text>

  <rect x="700" y="20" width="170" height="70" fill="#fee2e2" stroke="#ef4444" />
  <text x="785" y="50" text-anchor="middle" font-family="Arial" font-size="12" fill="#111827">Parallel Agents</text>
  <text x="785" y="68" text-anchor="middle" font-family="Arial" font-size="11" fill="#374151">Anomaly/Trend/etc.</text>

  <rect x="700" y="120" width="170" height="70" fill="#fef3c7" stroke="#f59e0b" />
  <text x="785" y="150" text-anchor="middle" font-family="Arial" font-size="12" fill="#111827">Recommendations</text>
  <text x="785" y="168" text-anchor="middle" font-family="Arial" font-size="11" fill="#374151">+ Report Outputs</text>

  <line x1="200" y1="75" x2="240" y2="55" stroke="#6b7280" stroke-width="2" />
  <line x1="200" y1="75" x2="240" y2="145" stroke="#6b7280" stroke-width="2" />
  <line x1="440" y1="55" x2="480" y2="90" stroke="#6b7280" stroke-width="2" />
  <line x1="440" y1="145" x2="480" y2="120" stroke="#6b7280" stroke-width="2" />
  <line x1="660" y1="90" x2="700" y2="55" stroke="#6b7280" stroke-width="2" />
  <line x1="660" y1="120" x2="700" y2="155" stroke="#6b7280" stroke-width="2" />

  <text x="20" y="320" font-family="Arial" font-size="12" fill="#6b7280">
    Orchestration selects agents dynamically from MSME context and sector signals.
  </text>
</svg>
