<svg xmlns="http://www.w3.org/2000/svg" width="980" height="480" viewBox="0 0 980 480">
  <rect width="980" height="480" fill="#ffffff" />

  <rect x="20" y="30" width="220" height="70" fill="#f2f4f8" stroke="#4b5563" />
  <text x="130" y="60" text-anchor="middle" font-family="Arial" font-size="13" fill="#111827">MSME Profile</text>
  <text x="130" y="80" text-anchor="middle" font-family="Arial" font-size="11" fill="#374151">Business Domain + Processes</text>

  <rect x="20" y="120" width="220" height="90" fill="#e0f2fe" stroke="#0284c7" />
  <text x="130" y="148" text-anchor="middle" font-family="Arial" font-size="12" fill="#0f172a">Known Parameters</text>
  <text x="130" y="168" text-anchor="middle" font-family="Arial" font-size="11" fill="#334155">Resources, Water, Fuel</text>
  <text x="130" y="186" text-anchor="middle" font-family="Arial" font-size="11" fill="#334155">Waste, Chemicals, Air, Materials</text>

  <rect x="20" y="230" width="220" height="70" fill="#ede9fe" stroke="#7c3aed" />
  <text x="130" y="258" text-anchor="middle" font-family="Arial" font-size="12" fill="#111827">Unknown Parameters</text>
  <text x="130" y="278" text-anchor="middle" font-family="Arial" font-size="11" fill="#374151">Placeholders from Behavior</text>

  <rect x="20" y="320" width="220" height="70" fill="#fef3c7" stroke="#f59e0b" />
  <text x="130" y="348" text-anchor="middle" font-family="Arial" font-size="12" fill="#111827">Government Policy</text>
  <text x="130" y="368" text-anchor="middle" font-family="Arial" font-size="11" fill="#374151">Placeholder Updates</text>

  <rect x="270" y="130" width="200" height="80" fill="#fee2e2" stroke="#ef4444" />
  <text x="370" y="160" text-anchor="middle" font-family="Arial" font-size="12" fill="#111827">Data Privacy Agent</text>
  <text x="370" y="180" text-anchor="middle" font-family="Arial" font-size="11" fill="#374151">Redaction + Policy Guard</text>

  <rect x="520" y="140" width="200" height="110" fill="#ecfccb" stroke="#65a30d" />
  <text x="620" y="170" text-anchor="middle" font-family="Arial" font-size="12" fill="#1f2937">Orchestration Manager</text>
  <text x="620" y="190" text-anchor="middle" font-family="Arial" font-size="11" fill="#374151">Multi-Agent Coordination</text>
  <text x="620" y="208" text-anchor="middle" font-family="Arial" font-size="11" fill="#374151">Known + Unknown Context</text>

  <rect x="760" y="40" width="200" height="120" fill="#e0f2fe" stroke="#0284c7" />
  <text x="860" y="70" text-anchor="middle" font-family="Arial" font-size="12" fill="#111827">Multi-AI Agents</text>
  <text x="860" y="90" text-anchor="middle" font-family="Arial" font-size="11" fill="#374151">Sector / Process</text>
  <text x="860" y="108" text-anchor="middle" font-family="Arial" font-size="11" fill="#374151">Data / Carbon</text>
  <text x="860" y="126" text-anchor="middle" font-family="Arial" font-size="11" fill="#374151">Anomaly / Trend</text>
  <text x="860" y="144" text-anchor="middle" font-family="Arial" font-size="11" fill="#374151">Compliance / Optimization</text>

  <rect x="760" y="200" width="200" height="80" fill="#fde68a" stroke="#f59e0b" />
  <text x="860" y="230" text-anchor="middle" font-family="Arial" font-size="12" fill="#111827">Outputs</text>
  <text x="860" y="250" text-anchor="middle" font-family="Arial" font-size="11" fill="#374151">Recommendations + Reports</text>

  <line x1="240" y1="65" x2="270" y2="165" stroke="#6b7280" stroke-width="2" />
  <line x1="240" y1="165" x2="520" y2="190" stroke="#6b7280" stroke-width="2" />
  <line x1="240" y1="265" x2="520" y2="210" stroke="#6b7280" stroke-width="2" />
  <line x1="240" y1="355" x2="520" y2="230" stroke="#6b7280" stroke-width="2" />
  <line x1="470" y1="170" x2="520" y2="190" stroke="#6b7280" stroke-width="2" />
  <line x1="720" y1="190" x2="760" y2="100" stroke="#6b7280" stroke-width="2" />
  <line x1="720" y1="220" x2="760" y2="240" stroke="#6b7280" stroke-width="2" />

  <text x="20" y="450" font-family="Arial" font-size="12" fill="#6b7280">
    Orchestration Manager coordinates multiple agents using MSME context, known parameters, and policy placeholders.
  </text>
</svg>
