<svg xmlns="http://www.w3.org/2000/svg" width="980" height="420" viewBox="0 0 980 420">
  <rect width="980" height="420" fill="#ffffff" />

  <rect x="30" y="40" width="250" height="80" fill="#f3f4f6" stroke="#4b5563" />
  <text x="155" y="68" text-anchor="middle" font-family="Arial" font-size="12" fill="#111827">MSME Profile + Domain</text>
  <text x="155" y="88" text-anchor="middle" font-family="Arial" font-size="11" fill="#374151">Industry, Size, Business Context</text>

  <rect x="310" y="40" width="250" height="80" fill="#e0f2fe" stroke="#0284c7" />
  <text x="435" y="68" text-anchor="middle" font-family="Arial" font-size="12" fill="#111827">Processes + Machinery</text>
  <text x="435" y="88" text-anchor="middle" font-family="Arial" font-size="11" fill="#374151">Operational Signals + Emission Factors</text>

  <rect x="590" y="40" width="360" height="80" fill="#ecfccb" stroke="#65a30d" />
  <text x="770" y="66" text-anchor="middle" font-family="Arial" font-size="12" fill="#111827">Resource Consumption</text>
  <text x="770" y="86" text-anchor="middle" font-family="Arial" font-size="11" fill="#374151">Water, Fuel, Waste, Chemicals, Air, Materials</text>

  <rect x="30" y="160" width="260" height="80" fill="#ede9fe" stroke="#7c3aed" />
  <text x="160" y="188" text-anchor="middle" font-family="Arial" font-size="12" fill="#111827">Unknown Parameters</text>
  <text x="160" y="208" text-anchor="middle" font-family="Arial" font-size="11" fill="#374151">Placeholders from Transactions</text>

  <rect x="320" y="160" width="260" height="80" fill="#fde68a" stroke="#f59e0b" />
  <text x="450" y="188" text-anchor="middle" font-family="Arial" font-size="12" fill="#111827">Policy Updates</text>
  <text x="450" y="208" text-anchor="middle" font-family="Arial" font-size="11" fill="#374151">Government Placeholder Feed</text>

  <rect x="610" y="160" width="340" height="80" fill="#fee2e2" stroke="#ef4444" />
  <text x="780" y="188" text-anchor="middle" font-family="Arial" font-size="12" fill="#111827">Data Quality + Thresholds</text>
  <text x="780" y="208" text-anchor="middle" font-family="Arial" font-size="11" fill="#374151">Completeness, Coverage, Sensitivity</text>

  <rect x="200" y="290" width="580" height="80" fill="#e0f2fe" stroke="#0284c7" />
  <text x="490" y="320" text-anchor="middle" font-family="Arial" font-size="12" fill="#111827">Coordination Mode + Agent Scope</text>
  <text x="490" y="340" text-anchor="middle" font-family="Arial" font-size="11" fill="#374151">Parallel / Sequential + Pre/Post Processing</text>

  <line x1="155" y1="120" x2="160" y2="160" stroke="#6b7280" stroke-width="2" />
  <line x1="435" y1="120" x2="450" y2="160" stroke="#6b7280" stroke-width="2" />
  <line x1="770" y1="120" x2="780" y2="160" stroke="#6b7280" stroke-width="2" />
  <line x1="450" y1="240" x2="490" y2="290" stroke="#6b7280" stroke-width="2" />

  <text x="30" y="400" font-family="Arial" font-size="12" fill="#6b7280">
    Orchestration parameters combine MSME context, known resources, and policy placeholders to drive agent selection.
  </text>
</svg>
